HIERARCHY
ROOT Hips
{
  OFFSET -312.782 72.9727 680.721
  CHANNELS 6 Xposition Yposition Zposition Zrotation Xrotation Yrotation
  JOINT Spine
  {
    OFFSET 0 8 2.15677e-05
    CHANNELS 6 Xposition Yposition Zposition Zrotation Xrotation Yrotation
    JOINT Spine1
    {
      OFFSET 0 8 -2.68124e-05
      CHANNELS 6 Xposition Yposition Zposition Zrotation Xrotation Yrotation
      JOINT Spine2
      {
        OFFSET 0 8 0
        CHANNELS 6 Xposition Yposition Zposition Zrotation Xrotation Yrotation
        JOINT Spine3
        {
          OFFSET 0 8 0
          CHANNELS 6 Xposition Yposition Zposition Zrotation Xrotation Yrotation
          JOINT Neck
          {
            OFFSET 0.000301755 17 7.89517e-05
            CHANNELS 6 Xposition Yposition Zposition Zrotation Xrotation Yrotation
            JOINT Head
            {
              OFFSET 6.25726e-05 10.8 2.98562e-05
              CHANNELS 6 Xposition Yposition Zposition Zrotation Xrotation Yrotation
              End Site
              {
                OFFSET 0 20.25 0
              }
            }
          }
          JOINT LeftShoulder
          {
            OFFSET 5.00034 16.9999 0.000159958
            CHANNELS 6 Xposition Yposition Zposition Zrotation Xrotation Yrotation
            JOINT LeftShoulder2
            {
              OFFSET 6.45 0 0
              CHANNELS 6 Xposition Yposition Zposition Zrotation Xrotation Yrotation
              JOINT LeftArm
              {
                OFFSET 6.44997 9.71929e-05 -0.00128965
                CHANNELS 6 Xposition Yposition Zposition Zrotation Xrotation Yrotation
                JOINT LeftForeArm
                {
                  OFFSET -1.26043e-05 -32.4 -1.99521
                  CHANNELS 6 Xposition Yposition Zposition Zrotation Xrotation Yrotation
                  JOINT LeftHand
                  {
                    OFFSET -1.52018e-05 -25.65 2
                    CHANNELS 6 Xposition Yposition Zposition Zrotation Xrotation Yrotation
                    JOINT LeftHandThumb1
                    {
                      OFFSET -0.499967 -1.50001 2.64998
                      CHANNELS 6 Xposition Yposition Zposition Zrotation Xrotation Yrotation
                      JOINT LeftHandThumb2
                      {
                        OFFSET -1.42153e-05 -3.8 3.70004
                        CHANNELS 6 Xposition Yposition Zposition Zrotation Xrotation Yrotation
                        JOINT LeftHandThumb3
                        {
                          OFFSET 0 -2.99997 2.69995
                          CHANNELS 6 Xposition Yposition Zposition Zrotation Xrotation Yrotation
                          End Site
                          {
                            OFFSET 1.60883e-05 -2.30006 1.80002
                          }
                        }
                      }
                    }
                    JOINT LeftHandIndex
                    {
                      OFFSET 5.23021e-05 -1.90009 1.59999
                      CHANNELS 6 Xposition Yposition Zposition Zrotation Xrotation Yrotation
                      JOINT LeftHandIndex1
                      {
                        OFFSET -1.10837e-05 -8.29999 1.9
                        CHANNELS 6 Xposition Yposition Zposition Zrotation Xrotation Yrotation
                        JOINT LeftHandIndex2
                        {
                          OFFSET -2.69795e-05 -4.49991 -1.2836e-05
                          CHANNELS 6 Xposition Yposition Zposition Zrotation Xrotation Yrotation
                          JOINT LeftHandIndex3
                          {
                            OFFSET 0 -3.4283 0
                            CHANNELS 6 Xposition Yposition Zposition Zrotation Xrotation Yrotation
                            End Site
                            {
                              OFFSET -1.90785e-05 -2.59991 0
                            }
                          }
                        }
                      }
                    }
                    JOINT LeftHandMiddle
                    {
                      OFFSET -0.249982 -2.20005 0.399991
                      CHANNELS 6 Xposition Yposition Zposition Zrotation Xrotation Yrotation
                      JOINT LeftHandMiddle1
                      {
                        OFFSET -1.20444e-05 -8.29991 0.999978
                        CHANNELS 6 Xposition Yposition Zposition Zrotation Xrotation Yrotation
                        JOINT LeftHandMiddle2
                        {
                          OFFSET 0 -4.65001 2.59492e-05
                          CHANNELS 6 Xposition Yposition Zposition Zrotation Xrotation Yrotation
                          JOINT LeftHandMiddle3
                          {
                            OFFSET -1.38946e-05 -3.30003 -2.05144e-05
                            CHANNELS 6 Xposition Yposition Zposition Zrotation Xrotation Yrotation
                            End Site
                            {
                              OFFSET -6.7242e-05 -2.7 1.11671e-05
                            }
                          }
                        }
                      }
                    }
                    JOINT LeftHandRing
                    {
                      OFFSET -0.499999 -2.15003 -0.800023
                      CHANNELS 6 Xposition Yposition Zposition Zrotation Xrotation Yrotation
                      JOINT LeftHandRing1
                      {
                        OFFSET 1.04148e-05 -7.75005 -0.199994
                        CHANNELS 6 Xposition Yposition Zposition Zrotation Xrotation Yrotation
                        JOINT LeftHandRing2
                        {
                          OFFSET -1.57042e-05 -3.86405 -1.63023e-05
                          CHANNELS 6 Xposition Yposition Zposition Zrotation Xrotation Yrotation
                          JOINT LeftHandRing3
                          {
                            OFFSET 1.8104e-05 -3.4 2.40106e-05
                            CHANNELS 6 Xposition Yposition Zposition Zrotation Xrotation Yrotation
                            End Site
                            {
                              OFFSET -7.24257e-05 -2.60006 -2.08407e-05
                            }
                          }
                        }
                      }
                    }
                    JOINT LeftHandPinky
                    {
                      OFFSET -0.749996 -1.75005 -1.85001
                      CHANNELS 6 Xposition Yposition Zposition Zrotation Xrotation Yrotation
                      JOINT LeftHandPinky1
                      {
                        OFFSET -1.04947e-05 -7.14999 -1.00002
                        CHANNELS 6 Xposition Yposition Zposition Zrotation Xrotation Yrotation
                        JOINT LeftHandPinky2
                        {
                          OFFSET -2.41076e-05 -3.00972 0
                          CHANNELS 6 Xposition Yposition Zposition Zrotation Xrotation Yrotation
                          JOINT LeftHandPinky3
                          {
                            OFFSET 2.95702e-05 -2.35 0
                            CHANNELS 6 Xposition Yposition Zposition Zrotation Xrotation Yrotation
                            End Site
                            {
                              OFFSET 0 -2.1 -1.12122e-05
                            }
                          }
                        }
                      }
                    }
                  }
                }
              }
            }
          }
          JOINT RightShoulder
          {
            OFFSET -4.99968 17.0001 1.85829e-05
            CHANNELS 6 Xposition Yposition Zposition Zrotation Xrotation Yrotation
            JOINT RightShoulder2
            {
              OFFSET -6.45 0 0
              CHANNELS 6 Xposition Yposition Zposition Zrotation Xrotation Yrotation
              JOINT RightArm
              {
                OFFSET -6.45 9.36366e-05 -0.00115906
                CHANNELS 6 Xposition Yposition Zposition Zrotation Xrotation Yrotation
                JOINT RightForeArm
                {
                  OFFSET -8.75095e-05 -32.4 -2.00002
                  CHANNELS 6 Xposition Yposition Zposition Zrotation Xrotation Yrotation
                  JOINT RightHand
                  {
                    OFFSET 9.29759e-05 -25.65 2.00005
                    CHANNELS 6 Xposition Yposition Zposition Zrotation Xrotation Yrotation
                    JOINT RightHandThumb1
                    {
                      OFFSET 0.499985 -1.5 2.65
                      CHANNELS 6 Xposition Yposition Zposition Zrotation Xrotation Yrotation
                      JOINT RightHandThumb2
                      {
                        OFFSET -2.85076e-05 -3.80005 3.70001
                        CHANNELS 6 Xposition Yposition Zposition Zrotation Xrotation Yrotation
                        JOINT RightHandThumb3
                        {
                          OFFSET 0 -3 2.7
                          CHANNELS 6 Xposition Yposition Zposition Zrotation Xrotation Yrotation
                          End Site
                          {
                            OFFSET -5.34512e-05 -2.29999 1.79998
                          }
                        }
                      }
                    }
                    JOINT RightHandIndex
                    {
                      OFFSET 4.10263e-05 -1.89993 1.59996
                      CHANNELS 6 Xposition Yposition Zposition Zrotation Xrotation Yrotation
                      JOINT RightHandIndex1
                      {
                        OFFSET -3.73898e-05 -8.30005 1.89997
                        CHANNELS 6 Xposition Yposition Zposition Zrotation Xrotation Yrotation
                        JOINT RightHandIndex2
                        {
                          OFFSET -2.98249e-05 -4.49997 2.54084e-05
                          CHANNELS 6 Xposition Yposition Zposition Zrotation Xrotation Yrotation
                          JOINT RightHandIndex3
                          {
                            OFFSET 3.39205e-05 -3.40001 3.15151e-05
                            CHANNELS 6 Xposition Yposition Zposition Zrotation Xrotation Yrotation
                            End Site
                            {
                              OFFSET 0 -2.59999 0
                            }
                          }
                        }
                      }
                    }
                    JOINT RightHandMiddle
                    {
                      OFFSET 0.249986 -2.2 0.400004
                      CHANNELS 6 Xposition Yposition Zposition Zrotation Xrotation Yrotation
                      JOINT RightHandMiddle1
                      {
                        OFFSET 1.9285e-05 -8.29996 1.00002
                        CHANNELS 6 Xposition Yposition Zposition Zrotation Xrotation Yrotation
                        JOINT RightHandMiddle2
                        {
                          OFFSET -1.41411e-05 -4.64996 -6.59209e-05
                          CHANNELS 6 Xposition Yposition Zposition Zrotation Xrotation Yrotation
                          JOINT RightHandMiddle3
                          {
                            OFFSET 3.54617e-05 -3.30001 0
                            CHANNELS 6 Xposition Yposition Zposition Zrotation Xrotation Yrotation
                            End Site
                            {
                              OFFSET -5.84421e-05 -2.69994 7.55019e-05
                            }
                          }
                        }
                      }
                    }
                    JOINT RightHandRing
                    {
                      OFFSET 0.499998 -2.15002 -0.800022
                      CHANNELS 6 Xposition Yposition Zposition Zrotation Xrotation Yrotation
                      JOINT RightHandRing1
                      {
                        OFFSET 1.33707e-05 -7.75 -0.200037
                        CHANNELS 6 Xposition Yposition Zposition Zrotation Xrotation Yrotation
                        JOINT RightHandRing2
                        {
                          OFFSET 1.92916e-05 -3.79999 -1.86407e-05
                          CHANNELS 6 Xposition Yposition Zposition Zrotation Xrotation Yrotation
                          JOINT RightHandRing3
                          {
                            OFFSET -4.12944e-05 -3.39998 4.317e-05
                            CHANNELS 6 Xposition Yposition Zposition Zrotation Xrotation Yrotation
                            End Site
                            {
                              OFFSET -3.15033e-05 -2.59999 0
                            }
                          }
                        }
                      }
                    }
                    JOINT RightHandPinky
                    {
                      OFFSET 0.750018 -1.74993 -1.84998
                      CHANNELS 6 Xposition Yposition Zposition Zrotation Xrotation Yrotation
                      JOINT RightHandPinky1
                      {
                        OFFSET -2.51784e-05 -7.15001 -1.00002
                        CHANNELS 6 Xposition Yposition Zposition Zrotation Xrotation Yrotation
                        JOINT RightHandPinky2
                        {
                          OFFSET 0 -3.00001 3.79536e-05
                          CHANNELS 6 Xposition Yposition Zposition Zrotation Xrotation Yrotation
                          JOINT RightHandPinky3
                          {
                            OFFSET -2.10167e-05 -2.35 -2.74819e-05
                            CHANNELS 6 Xposition Yposition Zposition Zrotation Xrotation Yrotation
                            End Site
                            {
                              OFFSET 0 -2.09995 3.85515e-05
                            }
                          }
                        }
                      }
                    }
                  }
                }
              }
            }
          }
        }
      }
    }
  }
  JOINT LeftUpLeg
  {
    OFFSET 8 0 -2.28971e-05
    CHANNELS 6 Xposition Yposition Zposition Zrotation Xrotation Yrotation
    JOINT LeftLeg
    {
      OFFSET 0 -45.0001 -0.999986
      CHANNELS 6 Xposition Yposition Zposition Zrotation Xrotation Yrotation
      JOINT LeftFoot
      {
        OFFSET 0 -41 -2.00003
        CHANNELS 6 Xposition Yposition Zposition Zrotation Xrotation Yrotation
        JOINT LeftToeBase
        {
          OFFSET -2.189e-05 -7.5 12.5
          CHANNELS 6 Xposition Yposition Zposition Zrotation Xrotation Yrotation
          JOINT LeftFootToe
          {
            OFFSET 0 0 4
            CHANNELS 6 Xposition Yposition Zposition Zrotation Xrotation Yrotation
            End Site
            {
              OFFSET 0 0 0
            }
          }
        }
      }
    }
  }
  JOINT RightUpLeg
  {
    OFFSET -8 0 2.28971e-05
    CHANNELS 6 Xposition Yposition Zposition Zrotation Xrotation Yrotation
    JOINT RightLeg
    {
      OFFSET 0 -45 -1.00001
      CHANNELS 6 Xposition Yposition Zposition Zrotation Xrotation Yrotation
      JOINT RightFoot
      {
        OFFSET 0 -41 -2.00007
        CHANNELS 6 Xposition Yposition Zposition Zrotation Xrotation Yrotation
        JOINT RightToeBase
        {
          OFFSET 3.04452e-05 -7.50001 12.5
          CHANNELS 6 Xposition Yposition Zposition Zrotation Xrotation Yrotation
          JOINT RightFootToe
          {
            OFFSET 0 0 4
            CHANNELS 6 Xposition Yposition Zposition Zrotation Xrotation Yrotation
            End Site
            {
              OFFSET 0 0 0
            }
          }
        }
      }
    }
  }
}
MOTION
Frames:	2
Frame Time:	0.0111111
-322.628 70.4781 683.948 0.115439 22.1983 165.444 -1.54449e-05 8 3.39104e-06 5.16956 14.2633 -10.2277 3.05323e-06 8 -2.13291e-05 1.92921 5.11548 -2.75524 7.34485e-06 8 3.403e-05 0.933603 2.57145 -1.35572 0 8 1.13687e-13 0.934524 2.56859 -1.35201 -0.000172248 17 -0.00025595 0.476441 2.23797 -0.49706 3.49616e-05 10.8 1.10897e-05 -0.780144 4.46004 -1.14007 4.9998 17 -0.000193509 -4.46409 0.0107897 -4.27148 6.45 0 0 0.29366 0.347624 1.83571 6.45002 0.000119746 0.000350531 40.2594 17.4143 18.2918 -4.90135e-06 -32.4 -1.99695 -36.2694 -59.0994 -57.5192 -1.03261e-05 -25.65 2 6.52035 -41.5476 -19.9514 -0.499992 -1.49998 2.64999 -8.72541 -34.8634 -19.7683 -4.13717e-07 -3.79998 3.70004 0.0016307 50.4491 -0.00348637 3.5402e-07 -3.00004 2.69995 -0.0410244 18.6925 0.0388053 1.35361e-05 -1.90009 1.59998 5.35004e-06 -6.08622e-06 -2.30273e-06 6.88047e-06 -8.29995 1.9 -3.89761 16.1868 0.697212 -2.07565e-06 -4.49996 -5.41051e-06 -8.89357 -0.0160061 -0.00415786 -4.28726e-05 -3.4239 2.15166e-05 -7.49873 0.0011217 -0.000579049 -0.249993 -2.2 0.4 5.35004e-06 -6.08622e-06 -2.30273e-06 -1.49941e-05 -8.29998 0.999993 -8.17144 13.3988 1.8942 -2.49051e-09 -4.64997 1.1277e-06 -19.1571 -0.0217509 0.00744321 -2.56664e-05 -3.30004 1.15377e-05 -15.0656 -0.015197 -0.0240601 -0.500014 -2.15006 -0.800018 5.35004e-06 -6.08622e-06 -2.30273e-06 -8.50461e-06 -7.75001 -0.199999 -20.0195 29.0579 7.7971 1.00437e-05 -3.84935 9.02652e-07 -32.8097 -0.0142919 -0.0153673 -1.27827e-05 -3.40003 1.35011e-05 -22.8069 -0.00296529 -0.0111308 -0.75002 -1.75003 -1.85001 5.35004e-06 -6.08622e-06 -2.30273e-06 -1.75934e-05 -7.15 -0.999996 -31.6389 34.7672 14.2441 1.19021e-05 -3.00609 8.6701e-07 -9.77841 -0.00281335 -0.0127606 -1.80488e-05 -2.35002 5.30195e-06 -3.00932 -0.00229554 -0.0111632 -5.0002 16.9999 -0.000337222 8.0816 -0.946796 -1.23211 -6.45 0 1.13687e-13 -0.557567 -0.438073 -1.21557 -6.44999 0.000195905 -0.000384437 -64.8275 -8.54519 -51.5412 -7.16054e-05 -32.4 -1.99994 39.1314 -63.0695 36.8329 5.84589e-05 -25.65 1.99999 21.5633 -10.0622 11.0759 0.499998 -1.50004 2.65002 -55.259 -58.9739 -84.2031 -5.89644e-05 -3.80006 3.70003 2.9663 21.5819 0.446397 -8.6633e-06 -3 2.69999 0.694176 62.5886 -1.06424 6.03382e-05 -1.89997 1.6 7.68778e-06 -2.51777e-06 -2.83288e-07 -6.11137e-05 -8.30001 1.89996 15.5782 0.234699 -0.134168 -3.22398e-05 -4.49998 4.85188e-05 19.1058 -0.000924274 -0.00657894 4.50079e-05 -3.39999 -1.6755e-05 15.285 0.00238117 -0.00467579 0.249969 -2.19998 0.400045 7.68778e-06 -2.51777e-06 -2.83288e-07 2.38203e-05 -8.29996 0.999989 21.6308 1.60914 -0.749044 -1.20684e-05 -4.65003 -2.47509e-05 21.3532 0.00468408 0.00395791 3.49888e-05 -3.29996 -1.01941e-05 14.5202 0.006682 0.00594247 0.499994 -2.15003 -0.799997 7.68778e-06 -2.51777e-06 -2.83288e-07 3.32831e-05 -7.75001 -0.200036 31.9664 6.14394 -2.97807 4.06856e-06 -3.8 1.66202e-05 32.9397 0.013582 0.0417236 -2.5278e-05 -3.39995 -9.48401e-06 23.8854 0.0231938 0.0147967 0.750031 -1.74996 -1.84996 7.68778e-06 -2.51777e-06 -2.83288e-07 -3.73632e-05 -7.15 -0.999996 43.774 -0.336747 -2.24705 -5.09541e-06 -2.99998 2.36568e-05 37.7457 0.0562068 0.0565166 -1.51668e-05 -2.35003 -1.12032e-05 26.7756 0.047012 0.0140761 8.00001 7.23545e-08 -1.02509e-05 15.6405 -39.0911 16.9018 6.78584e-06 -45 -1.00005 -14.0213 70.5088 0.649991 4.7885e-06 -41 -2.00001 1.47744 -7.18733 -16.4185 -1.91192e-05 -7.5 12.5 -1.80129e-07 2.51538e-06 -3.31296e-06 5.68434e-14 4.44089e-16 4 5.31512 0.2099 61.7202 -8.00001 -7.23545e-08 1.02509e-05 -15.4526 -53.8157 -10.7049 8.32895e-06 -45 -1.00001 0.994001 68.6836 -8.66558 -5.4844e-06 -41 -2.00006 4.13028 9.52645 10.4521 2.94971e-05 -7.5 12.5 -0.00018179 -6.00661e-06 1.77718e-05 2.84217e-14 0 4 8.08506 8.51024 52.7624 
-322.486 70.5989 683.664 -0.0773651 22.1297 165.416 -1.54449e-05 8 3.39104e-06 5.25735 14.207 -10.1851 3.05323e-06 8 -2.13291e-05 2.03368 5.13261 -2.70694 7.34485e-06 8 3.403e-05 0.986262 2.58044 -1.33033 -5.68434e-14 8 0 0.984102 2.57648 -1.32816 -0.000172248 17 -0.00025595 0.153633 2.1429 -0.538555 3.49616e-05 10.8 1.10897e-05 -0.99546 4.45459 -1.23516 4.9998 17 -0.000193509 -4.75032 -0.0279263 -3.92431 6.45 -7.10543e-15 0 0.28978 0.350157 1.84419 6.45002 0.000119746 0.000350531 40.3146 16.966 17.7697 -4.90135e-06 -32.4 -1.99695 -36.1562 -58.9301 -57.5155 -1.03261e-05 -25.65 2 7.00446 -41.7187 -19.7038 -0.499992 -1.49998 2.64999 -8.36 -34.9546 -19.5186 -4.13717e-07 -3.79998 3.70004 0.0016129 50.2621 -0.00347266 3.5402e-07 -3.00004 2.69995 -0.0426147 20.8732 0.0427565 1.35361e-05 -1.90009 1.59998 5.35004e-06 -6.08622e-06 -2.30273e-06 6.88047e-06 -8.29995 1.9 -3.93312 16.2541 0.705801 -2.07565e-06 -4.49996 -5.41051e-06 -6.43319 -0.014486 0.00148287 -4.28726e-05 -3.4239 2.15166e-05 -5.53933 0.0011217 -0.000579049 -0.249993 -2.2 0.4 5.35004e-06 -6.08622e-06 -2.30273e-06 -1.49941e-05 -8.29998 0.999993 -8.20355 13.374 1.90822 -2.49051e-09 -4.64997 1.1277e-06 -16.3734 -0.0218152 0.0138441 -2.56664e-05 -3.30004 1.15377e-05 -13.18 -0.0164772 -0.0240601 -0.500014 -2.15006 -0.800018 5.35004e-06 -6.08622e-06 -2.30273e-06 -8.50461e-06 -7.75001 -0.199999 -20.1163 29.1465 7.87321 1.00437e-05 -3.84935 9.02652e-07 -28.7316 -0.0220593 -0.00938434 -1.27827e-05 -3.40003 1.35011e-05 -20.2096 -0.00296529 -0.00934433 -0.75002 -1.75003 -1.85001 5.35004e-06 -6.08622e-06 -2.30273e-06 -1.75934e-05 -7.15 -0.999996 -31.8804 34.8899 14.4314 1.19021e-05 -3.00609 8.6701e-07 -8.45598 -0.00281335 -0.00812297 -1.80488e-05 -2.35002 5.30195e-06 -1.85066 -0.00229554 -0.00737501 -5.0002 16.9999 -0.000337222 7.56155 -1.08828 -1.13488 -6.45 0 0 -0.59778 -0.415487 -1.26882 -6.44999 0.000195905 -0.000384437 -64.9035 -10.1171 -50.0209 -7.16054e-05 -32.4 -1.99994 35.8486 -62.3467 33.5829 5.84589e-05 -25.65 1.99999 20.6405 -10.1744 11.375 0.499998 -1.50004 2.65002 -57.8433 -59.683 -87.636 -5.89644e-05 -3.80006 3.70003 2.97062 21.5246 0.449713 -8.6633e-06 -3 2.69999 0.694356 62.593 -1.0644 6.03382e-05 -1.89997 1.6 7.68778e-06 -2.51777e-06 -2.83287e-07 -6.11137e-05 -8.30001 1.89996 16.3194 0.405854 -0.176327 -3.22397e-05 -4.49998 4.85188e-05 19.7317 -0.000924274 -0.000229938 4.50079e-05 -3.39999 -1.6755e-05 15.6973 0.00238117 -0.000154083 0.249969 -2.19998 0.400045 7.68778e-06 -2.51777e-06 -2.83287e-07 2.38203e-05 -8.29996 0.999989 22.5659 1.6313 -0.806421 -1.20684e-05 -4.65003 -2.47509e-05 21.5468 0.00468408 0.00825152 3.49888e-05 -3.29996 -1.01941e-05 14.6514 0.006682 0.0107716 0.499994 -2.15003 -0.799997 7.68778e-06 -2.51777e-06 -2.83287e-07 3.32831e-05 -7.75001 -0.200036 33.3152 5.68812 -3.00888 4.06855e-06 -3.8 1.66202e-05 34.2114 0.0588125 0.0510658 -2.5278e-05 -3.39995 -9.48401e-06 24.7055 0.0538797 0.00547659 0.750031 -1.74996 -1.84996 7.68778e-06 -2.51777e-06 -2.83287e-07 -3.73632e-05 -7.15 -0.999996 44.904 -0.755221 -2.19791 -5.09541e-06 -2.99998 2.36568e-05 38.8059 0.071276 0.0609764 -1.51668e-05 -2.35003 -1.12032e-05 27.4432 0.0572072 0.0116486 8.00001 7.23545e-08 -1.02509e-05 15.513 -39.0191 16.7572 6.78584e-06 -45 -1.00005 -14.3532 70.5959 1.04548 4.7885e-06 -41 -2.00001 1.39206 -7.48611 -16.3467 -1.91192e-05 -7.5 12.5 -1.80129e-07 2.51538e-06 -3.31296e-06 0 0 4 5.31118 0.523728 61.737 -8.00001 -7.23545e-08 1.02509e-05 -15.3508 -53.8916 -10.5108 8.32895e-06 -45 -1.00001 1.12917 68.8381 -8.88147 -5.4844e-06 -41 -2.00006 4.14026 9.54358 10.3187 2.94971e-05 -7.5 12.5 -0.00018179 -6.00661e-06 1.77718e-05 0 0 4 7.86246 8.44791 52.7755 
